STARTFONT 2.1
FONT -sun-Chelmsford Sans Serif-Normal-R-Normal-SansSerif-23-140-120-120-P-121-WinRoman-0
SIZE 14 120 120
FONTBOUNDINGBOX 23 28 0 -6
COMMENT "Generated by fontforge, http://fontforge.sourceforge.net"
COMMENT "(c)Copyright Sun Microsystems Inc"
STARTPROPERTIES 33
FOUNDRY "sun"
FAMILY_NAME "Chelmsford Sans Serif"
WEIGHT_NAME "Normal"
SLANT "R"
SETWIDTH_NAME "Normal"
ADD_STYLE_NAME "SansSerif"
PIXEL_SIZE 23
POINT_SIZE 140
RESOLUTION_X 120
RESOLUTION_Y 120
SPACING "P"
AVERAGE_WIDTH 121
CHARSET_REGISTRY "WinRoman"
CHARSET_ENCODING "0"
FONTNAME_REGISTRY ""
CHARSET_COLLECTIONS "WinRoman"
FONT_NAME "ChelmsfordSansSerif"
FACE_NAME "Chelmsford Sans Serif"
COPYRIGHT "(c)Copyright Sun Microsystems Inc"
FONT_VERSION "001.000"
FONT_ASCENT 18
FONT_DESCENT 5
UNDERLINE_POSITION -2
UNDERLINE_THICKNESS 2
X_HEIGHT 11
CAP_HEIGHT 16
RAW_ASCENT 800
RAW_DESCENT 200
NORM_SPACE 6
RELATIVE_WEIGHT 40
RELATIVE_SETWIDTH 50
AVG_LOWERCASE_WIDTH 118
AVG_UPPERCASE_WIDTH 153
ENDPROPERTIES
CHARS 224
STARTCHAR space
ENCODING 32
SWIDTH 275 0
DWIDTH 6 0
BBX 1 1 5 -6
BITMAP
00
ENDCHAR
STARTCHAR exclam
ENCODING 33
SWIDTH 275 0
DWIDTH 6 0
BBX 2 17 2 0
BITMAP
C0
C0
C0
C0
C0
C0
C0
C0
C0
C0
C0
C0
C0
00
00
C0
C0
ENDCHAR
STARTCHAR quotedbl
ENCODING 34
SWIDTH 350 0
DWIDTH 8 0
BBX 6 5 1 12
BITMAP
CC
CC
CC
CC
CC
ENDCHAR
STARTCHAR numbersign
ENCODING 35
SWIDTH 550 0
DWIDTH 13 0
BBX 11 17 1 0
BITMAP
0CC0
0CC0
0CC0
1980
1980
7FE0
7FE0
1980
3300
3300
FFC0
FFC0
3300
3300
6600
6600
6600
ENDCHAR
STARTCHAR dollar
ENCODING 36
SWIDTH 550 0
DWIDTH 13 0
BBX 11 20 1 -2
BITMAP
0400
1F00
7FC0
64E0
C460
C400
C400
6400
7F00
1FC0
04C0
0460
0460
0460
C460
E4C0
7FC0
1F00
0400
0400
ENDCHAR
STARTCHAR percent
ENCODING 37
SWIDTH 875 0
DWIDTH 22 0
BBX 20 17 1 0
BITMAP
3C0300
7E0300
E70600
C30C00
C30C00
E71800
7E3000
3C3000
006000
00C3C0
00C7E0
018E70
030C30
030C30
060E70
0C07E0
0C03C0
ENDCHAR
STARTCHAR ampersand
ENCODING 38
SWIDTH 675 0
DWIDTH 16 0
BBX 14 17 1 0
BITMAP
0E00
1F00
3180
3180
3180
1B00
1F00
0E00
3F00
7318
6398
C1D8
C0F0
C070
60F0
7FF8
1F1C
ENDCHAR
STARTCHAR quotesingle
ENCODING 39
SWIDTH 225 0
DWIDTH 4 0
BBX 2 6 1 11
BITMAP
C0
C0
C0
C0
C0
C0
ENDCHAR
STARTCHAR parenleft
ENCODING 40
SWIDTH 325 0
DWIDTH 8 0
BBX 5 22 2 -5
BITMAP
18
30
30
60
60
60
C0
C0
C0
C0
C0
C0
C0
C0
C0
C0
60
60
60
30
30
18
ENDCHAR
STARTCHAR parenright
ENCODING 41
SWIDTH 325 0
DWIDTH 8 0
BBX 5 22 1 -5
BITMAP
C0
60
60
30
30
30
18
18
18
18
18
18
18
18
18
18
30
30
30
60
60
C0
ENDCHAR
STARTCHAR asterisk
ENCODING 42
SWIDTH 375 0
DWIDTH 10 0
BBX 7 7 1 10
BITMAP
10
10
D6
7C
38
6C
44
ENDCHAR
STARTCHAR plus
ENCODING 43
SWIDTH 575 0
DWIDTH 14 0
BBX 10 12 2 2
BITMAP
0C00
0C00
0C00
0C00
0C00
FFC0
FFC0
0C00
0C00
0C00
0C00
0C00
ENDCHAR
STARTCHAR comma
ENCODING 44
SWIDTH 275 0
DWIDTH 6 0
BBX 2 4 2 -2
BITMAP
C0
C0
40
80
ENDCHAR
STARTCHAR hyphen
ENCODING 45
SWIDTH 325 0
DWIDTH 8 0
BBX 6 2 1 7
BITMAP
FC
FC
ENDCHAR
STARTCHAR period
ENCODING 46
SWIDTH 275 0
DWIDTH 6 0
BBX 2 2 2 0
BITMAP
C0
C0
ENDCHAR
STARTCHAR slash
ENCODING 47
SWIDTH 275 0
DWIDTH 7 0
BBX 7 17 0 0
BITMAP
06
06
0C
0C
0C
18
18
18
30
30
30
60
60
60
C0
C0
C0
ENDCHAR
STARTCHAR zero
ENCODING 48
SWIDTH 550 0
DWIDTH 13 0
BBX 11 17 1 0
BITMAP
0E00
3F80
71C0
60C0
C060
C060
C060
C060
C060
C060
C060
C060
C060
60C0
71C0
3F80
0E00
ENDCHAR
STARTCHAR one
ENCODING 49
SWIDTH 550 0
DWIDTH 13 0
BBX 6 17 3 0
BITMAP
0C
1C
FC
FC
0C
0C
0C
0C
0C
0C
0C
0C
0C
0C
0C
0C
0C
ENDCHAR
STARTCHAR two
ENCODING 50
SWIDTH 550 0
DWIDTH 13 0
BBX 11 17 1 0
BITMAP
1F00
7FC0
71C0
E0E0
C060
0060
00E0
01C0
07C0
0F00
1C00
3800
7000
6000
E000
FFE0
FFE0
ENDCHAR
STARTCHAR three
ENCODING 51
SWIDTH 550 0
DWIDTH 13 0
BBX 11 17 1 0
BITMAP
1F00
7FC0
71C0
E0E0
C060
00C0
01C0
0F80
0F80
01C0
00E0
C060
C060
E0E0
71C0
7FC0
1F00
ENDCHAR
STARTCHAR four
ENCODING 52
SWIDTH 550 0
DWIDTH 12 0
BBX 11 17 1 0
BITMAP
01C0
03C0
07C0
06C0
0EC0
1CC0
18C0
38C0
70C0
60C0
E0C0
FFE0
FFE0
00C0
00C0
00C0
00C0
ENDCHAR
STARTCHAR five
ENCODING 53
SWIDTH 550 0
DWIDTH 13 0
BBX 11 17 1 0
BITMAP
3FE0
3FE0
3000
6000
6000
6000
FF00
FFC0
C1C0
00E0
0060
0060
0060
C0E0
E1C0
7FC0
1F00
ENDCHAR
STARTCHAR six
ENCODING 54
SWIDTH 550 0
DWIDTH 13 0
BBX 11 17 1 0
BITMAP
0F00
3FC0
70C0
6060
C000
C000
CF00
FFC0
F1C0
E0E0
C060
C060
C060
E0E0
71C0
7FC0
1F00
ENDCHAR
STARTCHAR seven
ENCODING 55
SWIDTH 550 0
DWIDTH 13 0
BBX 11 17 1 0
BITMAP
FFE0
FFE0
00C0
01C0
0180
0380
0300
0700
0600
0E00
0C00
0C00
1C00
1800
1800
1800
1800
ENDCHAR
STARTCHAR eight
ENCODING 56
SWIDTH 550 0
DWIDTH 13 0
BBX 11 17 1 0
BITMAP
0E00
3F80
3180
60C0
60C0
60C0
3180
3F80
3F80
71C0
E0E0
C060
C060
E0E0
71C0
7FC0
1F00
ENDCHAR
STARTCHAR nine
ENCODING 57
SWIDTH 550 0
DWIDTH 13 0
BBX 11 17 1 0
BITMAP
1F00
7FC0
71C0
E0E0
C060
C060
C060
E0E0
71E0
7FE0
1E60
0060
0060
C0C0
61C0
7F80
1E00
ENDCHAR
STARTCHAR colon
ENCODING 58
SWIDTH 275 0
DWIDTH 6 0
BBX 2 12 2 0
BITMAP
C0
C0
00
00
00
00
00
00
00
00
C0
C0
ENDCHAR
STARTCHAR semicolon
ENCODING 59
SWIDTH 275 0
DWIDTH 6 0
BBX 2 14 2 -2
BITMAP
C0
C0
00
00
00
00
00
00
00
00
C0
C0
40
80
ENDCHAR
STARTCHAR less
ENCODING 60
SWIDTH 575 0
DWIDTH 14 0
BBX 12 16 1 0
BITMAP
0010
0070
00E0
0380
0700
1C00
3800
E000
E000
3800
1C00
0700
0380
00E0
0070
0010
ENDCHAR
STARTCHAR equal
ENCODING 61
SWIDTH 575 0
DWIDTH 14 0
BBX 12 8 1 5
BITMAP
FFF0
FFF0
0000
0000
0000
0000
FFF0
FFF0
ENDCHAR
STARTCHAR greater
ENCODING 62
SWIDTH 575 0
DWIDTH 14 0
BBX 12 16 1 0
BITMAP
8000
E000
7000
1C00
0E00
0380
01C0
0070
0070
01C0
0380
0E00
1C00
7000
E000
8000
ENDCHAR
STARTCHAR question
ENCODING 63
SWIDTH 550 0
DWIDTH 12 0
BBX 10 17 1 0
BITMAP
1E00
3F80
6180
C0C0
C0C0
01C0
0380
0700
0600
0C00
0C00
0C00
0C00
0000
0000
0C00
0C00
ENDCHAR
STARTCHAR at
ENCODING 64
SWIDTH 1000 0
DWIDTH 24 0
BBX 22 21 1 -4
BITMAP
00FC00
03FF00
0E01C0
180060
300030
207C10
41FD98
438788
C3030C
C6030C
C6060C
C60608
C60C18
430C30
63FE70
20E3C0
300000
180000
0E0300
03FE00
00F800
ENDCHAR
STARTCHAR A
ENCODING 65
SWIDTH 675 0
DWIDTH 15 0
BBX 15 17 0 0
BITMAP
0380
0380
07C0
06C0
06C0
0EE0
0C60
1C70
1830
1830
3838
3FF8
3FF8
701C
600C
E00E
E00E
ENDCHAR
STARTCHAR B
ENCODING 66
SWIDTH 675 0
DWIDTH 16 0
BBX 14 17 1 0
BITMAP
FFC0
FFF0
C030
C018
C018
C018
C038
FFF0
FFF8
C018
C00C
C00C
C00C
C00C
C01C
FFF8
FFF0
ENDCHAR
STARTCHAR C
ENCODING 67
SWIDTH 725 0
DWIDTH 17 0
BBX 15 17 1 0
BITMAP
07E0
1FF8
3C3C
700C
6006
E006
C000
C000
C000
C000
C000
E006
6006
700C
3C3C
1FF8
07E0
ENDCHAR
STARTCHAR D
ENCODING 68
SWIDTH 725 0
DWIDTH 17 0
BBX 13 17 2 0
BITMAP
FF00
FFC0
C1E0
C070
C030
C038
C018
C018
C018
C018
C018
C038
C030
C070
C1E0
FFC0
FF00
ENDCHAR
STARTCHAR E
ENCODING 69
SWIDTH 675 0
DWIDTH 16 0
BBX 12 17 2 0
BITMAP
FFF0
FFF0
C000
C000
C000
C000
C000
FFE0
FFE0
C000
C000
C000
C000
C000
C000
FFF0
FFF0
ENDCHAR
STARTCHAR F
ENCODING 70
SWIDTH 675 0
DWIDTH 16 0
BBX 12 17 2 0
BITMAP
FFF0
FFF0
C000
C000
C000
C000
C000
FFC0
FFC0
C000
C000
C000
C000
C000
C000
C000
C000
ENDCHAR
STARTCHAR G
ENCODING 71
SWIDTH 725 0
DWIDTH 18 0
BBX 16 17 1 0
BITMAP
07F0
1FFC
3C1E
7006
6003
E003
C000
C000
C000
C07F
C07F
E003
6003
3007
3C1F
1FFF
07F1
ENDCHAR
STARTCHAR H
ENCODING 72
SWIDTH 725 0
DWIDTH 17 0
BBX 13 17 2 0
BITMAP
C018
C018
C018
C018
C018
C018
C018
FFF8
FFF8
C018
C018
C018
C018
C018
C018
C018
C018
ENDCHAR
STARTCHAR I
ENCODING 73
SWIDTH 250 0
DWIDTH 6 0
BBX 2 17 2 0
BITMAP
C0
C0
C0
C0
C0
C0
C0
C0
C0
C0
C0
C0
C0
C0
C0
C0
C0
ENDCHAR
STARTCHAR J
ENCODING 74
SWIDTH 500 0
DWIDTH 12 0
BBX 10 17 1 0
BITMAP
00C0
00C0
00C0
00C0
00C0
00C0
00C0
00C0
00C0
00C0
00C0
00C0
C0C0
C0C0
6180
7F80
1E00
ENDCHAR
STARTCHAR K
ENCODING 75
SWIDTH 650 0
DWIDTH 16 0
BBX 14 17 1 0
BITMAP
C038
C070
C0E0
C1C0
C380
C700
CE00
DF00
FF00
F380
E1C0
C0C0
C0E0
C070
C030
C038
C01C
ENDCHAR
STARTCHAR L
ENCODING 76
SWIDTH 550 0
DWIDTH 13 0
BBX 11 17 1 0
BITMAP
C000
C000
C000
C000
C000
C000
C000
C000
C000
C000
C000
C000
C000
C000
C000
FFE0
FFE0
ENDCHAR
STARTCHAR M
ENCODING 77
SWIDTH 825 0
DWIDTH 20 0
BBX 16 17 2 0
BITMAP
C003
C003
E007
E007
F00F
F00F
F81F
D81B
DC3B
CC33
CE73
C663
C7E3
C3C3
C3C3
C183
C183
ENDCHAR
STARTCHAR N
ENCODING 78
SWIDTH 725 0
DWIDTH 18 0
BBX 14 17 2 0
BITMAP
C00C
E00C
F00C
F80C
D80C
DC0C
CE0C
C70C
C30C
C38C
C1CC
C0EC
C06C
C07C
C03C
C01C
C00C
ENDCHAR
STARTCHAR O
ENCODING 79
SWIDTH 725 0
DWIDTH 19 0
BBX 17 17 1 0
BITMAP
07F000
1FFC00
3C1E00
300700
600300
E00380
C00180
C00180
C00180
C00180
C00180
E00380
600300
700700
3C1E00
1FFC00
07F000
ENDCHAR
STARTCHAR P
ENCODING 80
SWIDTH 675 0
DWIDTH 16 0
BBX 14 17 1 0
BITMAP
FFE0
FFF8
C018
C00C
C00C
C00C
C00C
C018
FFF8
FFE0
C000
C000
C000
C000
C000
C000
C000
ENDCHAR
STARTCHAR Q
ENCODING 81
SWIDTH 725 0
DWIDTH 19 0
BBX 17 19 1 -2
BITMAP
07F000
1FFC00
3C1E00
300700
600300
E00380
C00180
C00180
C00180
C00180
C00180
E02380
607300
703F00
3C1E00
1FFE00
07F700
000380
000100
ENDCHAR
STARTCHAR R
ENCODING 82
SWIDTH 725 0
DWIDTH 16 0
BBX 14 17 1 0
BITMAP
FFE0
FFF8
C018
C00C
C00C
C00C
C00C
C018
FFF8
FFE0
C070
C030
C030
C018
C018
C018
C00C
ENDCHAR
STARTCHAR S
ENCODING 83
SWIDTH 675 0
DWIDTH 16 0
BBX 13 17 1 0
BITMAP
1F80
3FE0
7070
6030
6000
6000
3000
3FC0
0FF0
0030
0018
0018
C018
E018
7830
3FF0
0FC0
ENDCHAR
STARTCHAR T
ENCODING 84
SWIDTH 600 0
DWIDTH 16 0
BBX 16 17 0 0
BITMAP
FFFF
FFFF
0180
0180
0180
0180
0180
0180
0180
0180
0180
0180
0180
0180
0180
0180
0180
ENDCHAR
STARTCHAR U
ENCODING 85
SWIDTH 725 0
DWIDTH 17 0
BBX 13 17 2 0
BITMAP
C018
C018
C018
C018
C018
C018
C018
C018
C018
C018
C018
C018
C018
6030
7070
3FE0
0F80
ENDCHAR
STARTCHAR V
ENCODING 86
SWIDTH 675 0
DWIDTH 15 0
BBX 15 17 0 0
BITMAP
E00E
E00E
600C
701C
3018
3018
3838
1830
1C70
0C60
0C60
0EE0
06C0
06C0
07C0
0380
0380
ENDCHAR
STARTCHAR W
ENCODING 87
SWIDTH 950 0
DWIDTH 22 0
BBX 22 17 0 0
BITMAP
C0300C
C0300C
E0301C
607818
607818
70FC38
30CC30
30CC30
39CE70
198660
198660
1F87E0
0F03C0
0F03C0
060180
060180
060180
ENDCHAR
STARTCHAR X
ENCODING 88
SWIDTH 675 0
DWIDTH 17 0
BBX 17 17 0 0
BITMAP
C00180
E00380
700700
380E00
1C1C00
0E3800
077000
03E000
01C000
03E000
077000
0E3800
1C1C00
380E00
700700
E00380
C00180
ENDCHAR
STARTCHAR Y
ENCODING 89
SWIDTH 650 0
DWIDTH 16 0
BBX 16 17 0 0
BITMAP
C003
E007
700E
381C
1C38
0E70
07E0
03C0
0180
0180
0180
0180
0180
0180
0180
0180
0180
ENDCHAR
STARTCHAR Z
ENCODING 90
SWIDTH 600 0
DWIDTH 14 0
BBX 13 17 1 0
BITMAP
FFF8
FFF8
0070
0060
00E0
01C0
0180
0380
0700
0E00
0C00
1C00
3800
3000
7000
FFF8
FFF8
ENDCHAR
STARTCHAR bracketleft
ENCODING 91
SWIDTH 275 0
DWIDTH 7 0
BBX 4 22 2 -5
BITMAP
F0
F0
C0
C0
C0
C0
C0
C0
C0
C0
C0
C0
C0
C0
C0
C0
C0
C0
C0
C0
F0
F0
ENDCHAR
STARTCHAR backslash
ENCODING 92
SWIDTH 275 0
DWIDTH 7 0
BBX 7 17 0 0
BITMAP
C0
E0
60
60
60
30
30
30
18
18
18
0C
0C
0C
06
06
06
ENDCHAR
STARTCHAR bracketright
ENCODING 93
SWIDTH 275 0
DWIDTH 7 0
BBX 4 22 1 -5
BITMAP
F0
F0
30
30
30
30
30
30
30
30
30
30
30
30
30
30
30
30
30
30
F0
F0
ENDCHAR
STARTCHAR asciicircum
ENCODING 94
SWIDTH 325 0
DWIDTH 11 0
BBX 9 4 1 13
BITMAP
1C00
3E00
7700
C180
ENDCHAR
STARTCHAR underscore
ENCODING 95
SWIDTH 550 0
DWIDTH 13 0
BBX 13 2 0 -3
BITMAP
FFF8
FFF8
ENDCHAR
STARTCHAR grave
ENCODING 96
SWIDTH 325 0
DWIDTH 8 0
BBX 6 4 1 13
BITMAP
E0
70
18
04
ENDCHAR
STARTCHAR a
ENCODING 97
SWIDTH 550 0
DWIDTH 13 0
BBX 12 12 1 0
BITMAP
1E00
7F80
6180
00C0
01C0
1FC0
7EC0
E0C0
C0C0
E1C0
7FF0
3E70
ENDCHAR
STARTCHAR b
ENCODING 98
SWIDTH 550 0
DWIDTH 14 0
BBX 12 17 1 0
BITMAP
C000
C000
C000
C000
C000
DF80
FFE0
E0E0
C070
C030
C030
C030
C030
C070
E0E0
FFE0
DF80
ENDCHAR
STARTCHAR c
ENCODING 99
SWIDTH 525 0
DWIDTH 12 0
BBX 11 12 0 0
BITMAP
0F00
3FC0
70E0
6060
C000
C000
C000
C000
6060
70E0
3FC0
0F00
ENDCHAR
STARTCHAR d
ENCODING 100
SWIDTH 550 0
DWIDTH 14 0
BBX 11 17 1 0
BITMAP
0060
0060
0060
0060
0060
1F60
7FE0
70E0
E060
C060
C060
C060
C060
E060
70E0
7FE0
1F60
ENDCHAR
STARTCHAR e
ENCODING 101
SWIDTH 550 0
DWIDTH 14 0
BBX 12 12 1 0
BITMAP
0F00
3FC0
70E0
6060
C030
FFF0
FFF0
C000
6000
7070
3FE0
0F80
ENDCHAR
STARTCHAR f
ENCODING 102
SWIDTH 275 0
DWIDTH 6 0
BBX 6 17 0 0
BITMAP
1C
3C
30
30
30
30
FC
FC
30
30
30
30
30
30
30
30
30
ENDCHAR
STARTCHAR g
ENCODING 103
SWIDTH 550 0
DWIDTH 14 0
BBX 11 17 1 -5
BITMAP
1F60
7FE0
70E0
E060
C060
C060
C060
C060
E060
70E0
7FE0
1F60
0060
0060
60C0
7FC0
1F00
ENDCHAR
STARTCHAR h
ENCODING 104
SWIDTH 550 0
DWIDTH 13 0
BBX 9 17 2 0
BITMAP
C000
C000
C000
C000
C000
DC00
FF00
E300
C180
C180
C180
C180
C180
C180
C180
C180
C180
ENDCHAR
STARTCHAR i
ENCODING 105
SWIDTH 225 0
DWIDTH 6 0
BBX 2 17 2 0
BITMAP
C0
C0
00
00
00
C0
C0
C0
C0
C0
C0
C0
C0
C0
C0
C0
C0
ENDCHAR
STARTCHAR j
ENCODING 106
SWIDTH 225 0
DWIDTH 6 0
BBX 4 23 1 -6
BITMAP
30
30
00
00
00
30
30
30
30
30
30
30
30
30
30
30
30
30
30
30
30
F0
E0
ENDCHAR
STARTCHAR k
ENCODING 107
SWIDTH 500 0
DWIDTH 12 0
BBX 10 17 1 0
BITMAP
C000
C000
C000
C000
C000
C380
C700
CE00
DC00
F800
FC00
EE00
C600
C700
C380
C180
C1C0
ENDCHAR
STARTCHAR l
ENCODING 108
SWIDTH 225 0
DWIDTH 6 0
BBX 2 17 2 0
BITMAP
C0
C0
C0
C0
C0
C0
C0
C0
C0
C0
C0
C0
C0
C0
C0
C0
C0
ENDCHAR
STARTCHAR m
ENCODING 109
SWIDTH 825 0
DWIDTH 20 0
BBX 16 11 2 0
BITMAP
DE3C
FF7E
E3C6
C183
C183
C183
C183
C183
C183
C183
C183
ENDCHAR
STARTCHAR n
ENCODING 110
SWIDTH 550 0
DWIDTH 13 0
BBX 9 11 2 0
BITMAP
DC00
FF00
E300
C180
C180
C180
C180
C180
C180
C180
C180
ENDCHAR
STARTCHAR o
ENCODING 111
SWIDTH 575 0
DWIDTH 14 0
BBX 12 12 1 0
BITMAP
1F80
7FE0
70E0
E070
C030
C030
C030
C030
E070
70E0
7FE0
1F80
ENDCHAR
STARTCHAR p
ENCODING 112
SWIDTH 550 0
DWIDTH 14 0
BBX 11 18 2 -6
BITMAP
DF00
FFC0
E1C0
C0E0
C060
C060
C060
C060
C0E0
E1C0
FFC0
DF00
C000
C000
C000
C000
C000
C000
ENDCHAR
STARTCHAR q
ENCODING 113
SWIDTH 550 0
DWIDTH 14 0
BBX 11 18 1 -6
BITMAP
1F60
7FE0
70E0
E060
C060
C060
C060
C060
E060
70E0
7FE0
1F60
0060
0060
0060
0060
0060
0060
ENDCHAR
STARTCHAR r
ENCODING 114
SWIDTH 325 0
DWIDTH 8 0
BBX 6 11 1 0
BITMAP
CC
DC
F0
E0
C0
C0
C0
C0
C0
C0
C0
ENDCHAR
STARTCHAR s
ENCODING 115
SWIDTH 500 0
DWIDTH 12 0
BBX 10 12 1 0
BITMAP
3F00
7F80
E180
C000
F000
7F00
1F80
03C0
00C0
C1C0
FF80
3F00
ENDCHAR
STARTCHAR t
ENCODING 116
SWIDTH 275 0
DWIDTH 6 0
BBX 6 16 0 0
BITMAP
30
30
30
30
FC
FC
30
30
30
30
30
30
30
30
3C
1C
ENDCHAR
STARTCHAR u
ENCODING 117
SWIDTH 550 0
DWIDTH 13 0
BBX 9 12 2 0
BITMAP
C180
C180
C180
C180
C180
C180
C180
C180
C180
6380
7F80
1D80
ENDCHAR
STARTCHAR v
ENCODING 118
SWIDTH 475 0
DWIDTH 11 0
BBX 11 12 0 0
BITMAP
C060
C060
C060
E0E0
60C0
71C0
3180
3B80
1B00
1F00
0E00
0E00
ENDCHAR
STARTCHAR w
ENCODING 119
SWIDTH 725 0
DWIDTH 18 0
BBX 18 12 0 0
BITMAP
C0C0C0
C0C0C0
E1E1C0
61E180
73F380
333300
333300
3F3F00
1E1E00
1E1E00
0C0C00
0C0C00
ENDCHAR
STARTCHAR x
ENCODING 120
SWIDTH 525 0
DWIDTH 11 0
BBX 11 12 0 0
BITMAP
C060
E0E0
71C0
3B80
1F00
0E00
0E00
1F00
3B80
71C0
E0E0
C060
ENDCHAR
STARTCHAR y
ENCODING 121
SWIDTH 500 0
DWIDTH 11 0
BBX 11 17 0 -5
BITMAP
C060
C060
E0E0
60C0
71C0
3180
3180
3B80
1B00
1F00
0E00
0E00
0C00
1C00
1800
F800
F000
ENDCHAR
STARTCHAR z
ENCODING 122
SWIDTH 500 0
DWIDTH 11 0
BBX 11 12 0 0
BITMAP
FFE0
FFE0
01C0
0380
0700
0E00
0E00
1C00
3800
7000
FFE0
FFE0
ENDCHAR
STARTCHAR braceleft
ENCODING 123
SWIDTH 325 0
DWIDTH 9 0
BBX 6 22 1 -5
BITMAP
0C
1C
30
30
30
30
30
30
30
60
C0
C0
60
30
30
30
30
30
30
38
1C
0C
ENDCHAR
STARTCHAR bar
ENCODING 124
SWIDTH 250 0
DWIDTH 6 0
BBX 2 23 2 -6
BITMAP
C0
C0
C0
C0
C0
C0
C0
C0
C0
C0
00
00
00
C0
C0
C0
C0
C0
C0
C0
C0
C0
C0
ENDCHAR
STARTCHAR braceright
ENCODING 125
SWIDTH 325 0
DWIDTH 9 0
BBX 6 22 1 -5
BITMAP
C0
E0
30
30
30
30
30
30
30
18
0C
0C
18
30
30
30
30
30
30
70
E0
C0
ENDCHAR
STARTCHAR asciitilde
ENCODING 126
SWIDTH 325 0
DWIDTH 14 0
BBX 11 4 1 13
BITMAP
7860
FE60
CFE0
C3C0
ENDCHAR
STARTCHAR uni007F
ENCODING 127
SWIDTH 975 0
DWIDTH 8 0
BBX 4 16 2 0
BITMAP
F0
F0
F0
F0
F0
F0
F0
F0
F0
F0
F0
F0
F0
F0
F0
F0
ENDCHAR
STARTCHAR Euro
ENCODING 128
SWIDTH 275 0
DWIDTH 8 0
BBX 4 16 2 0
BITMAP
F0
F0
F0
F0
F0
F0
F0
F0
F0
F0
F0
F0
F0
F0
F0
F0
ENDCHAR
STARTCHAR NameMe.129
ENCODING 129
SWIDTH 275 0
DWIDTH 8 0
BBX 4 16 2 0
BITMAP
F0
F0
F0
F0
F0
F0
F0
F0
F0
F0
F0
F0
F0
F0
F0
F0
ENDCHAR
STARTCHAR quotesinglbase
ENCODING 130
SWIDTH 275 0
DWIDTH 8 0
BBX 4 16 2 0
BITMAP
F0
F0
F0
F0
F0
F0
F0
F0
F0
F0
F0
F0
F0
F0
F0
F0
ENDCHAR
STARTCHAR florin
ENCODING 131
SWIDTH 275 0
DWIDTH 8 0
BBX 4 16 2 0
BITMAP
F0
F0
F0
F0
F0
F0
F0
F0
F0
F0
F0
F0
F0
F0
F0
F0
ENDCHAR
STARTCHAR quotedblbase
ENCODING 132
SWIDTH 275 0
DWIDTH 8 0
BBX 4 16 2 0
BITMAP
F0
F0
F0
F0
F0
F0
F0
F0
F0
F0
F0
F0
F0
F0
F0
F0
ENDCHAR
STARTCHAR ellipsis
ENCODING 133
SWIDTH 275 0
DWIDTH 8 0
BBX 4 16 2 0
BITMAP
F0
F0
F0
F0
F0
F0
F0
F0
F0
F0
F0
F0
F0
F0
F0
F0
ENDCHAR
STARTCHAR dagger
ENCODING 134
SWIDTH 275 0
DWIDTH 8 0
BBX 4 16 2 0
BITMAP
F0
F0
F0
F0
F0
F0
F0
F0
F0
F0
F0
F0
F0
F0
F0
F0
ENDCHAR
STARTCHAR daggerdbl
ENCODING 135
SWIDTH 275 0
DWIDTH 8 0
BBX 4 16 2 0
BITMAP
F0
F0
F0
F0
F0
F0
F0
F0
F0
F0
F0
F0
F0
F0
F0
F0
ENDCHAR
STARTCHAR circumflex
ENCODING 136
SWIDTH 275 0
DWIDTH 8 0
BBX 4 16 2 0
BITMAP
F0
F0
F0
F0
F0
F0
F0
F0
F0
F0
F0
F0
F0
F0
F0
F0
ENDCHAR
STARTCHAR perthousand
ENCODING 137
SWIDTH 275 0
DWIDTH 8 0
BBX 4 16 2 0
BITMAP
F0
F0
F0
F0
F0
F0
F0
F0
F0
F0
F0
F0
F0
F0
F0
F0
ENDCHAR
STARTCHAR Scaron
ENCODING 138
SWIDTH 275 0
DWIDTH 8 0
BBX 4 16 2 0
BITMAP
F0
F0
F0
F0
F0
F0
F0
F0
F0
F0
F0
F0
F0
F0
F0
F0
ENDCHAR
STARTCHAR guilsinglleft
ENCODING 139
SWIDTH 275 0
DWIDTH 8 0
BBX 4 16 2 0
BITMAP
F0
F0
F0
F0
F0
F0
F0
F0
F0
F0
F0
F0
F0
F0
F0
F0
ENDCHAR
STARTCHAR OE
ENCODING 140
SWIDTH 275 0
DWIDTH 8 0
BBX 4 16 2 0
BITMAP
F0
F0
F0
F0
F0
F0
F0
F0
F0
F0
F0
F0
F0
F0
F0
F0
ENDCHAR
STARTCHAR NameMe.141
ENCODING 141
SWIDTH 275 0
DWIDTH 8 0
BBX 4 16 2 0
BITMAP
F0
F0
F0
F0
F0
F0
F0
F0
F0
F0
F0
F0
F0
F0
F0
F0
ENDCHAR
STARTCHAR Zcaron
ENCODING 142
SWIDTH 275 0
DWIDTH 8 0
BBX 4 16 2 0
BITMAP
F0
F0
F0
F0
F0
F0
F0
F0
F0
F0
F0
F0
F0
F0
F0
F0
ENDCHAR
STARTCHAR NameMe.143
ENCODING 143
SWIDTH 275 0
DWIDTH 8 0
BBX 4 16 2 0
BITMAP
F0
F0
F0
F0
F0
F0
F0
F0
F0
F0
F0
F0
F0
F0
F0
F0
ENDCHAR
STARTCHAR NameMe.144
ENCODING 144
SWIDTH 275 0
DWIDTH 8 0
BBX 4 16 2 0
BITMAP
F0
F0
F0
F0
F0
F0
F0
F0
F0
F0
F0
F0
F0
F0
F0
F0
ENDCHAR
STARTCHAR quoteleft
ENCODING 145
SWIDTH 225 0
DWIDTH 6 0
BBX 2 4 2 13
BITMAP
40
80
C0
C0
ENDCHAR
STARTCHAR quoteright
ENCODING 146
SWIDTH 225 0
DWIDTH 6 0
BBX 2 4 2 13
BITMAP
C0
C0
40
80
ENDCHAR
STARTCHAR quotedblleft
ENCODING 147
SWIDTH 275 0
DWIDTH 8 0
BBX 4 16 2 0
BITMAP
F0
F0
F0
F0
F0
F0
F0
F0
F0
F0
F0
F0
F0
F0
F0
F0
ENDCHAR
STARTCHAR quotedblright
ENCODING 148
SWIDTH 275 0
DWIDTH 8 0
BBX 4 16 2 0
BITMAP
F0
F0
F0
F0
F0
F0
F0
F0
F0
F0
F0
F0
F0
F0
F0
F0
ENDCHAR
STARTCHAR bullet
ENCODING 149
SWIDTH 275 0
DWIDTH 8 0
BBX 4 16 2 0
BITMAP
F0
F0
F0
F0
F0
F0
F0
F0
F0
F0
F0
F0
F0
F0
F0
F0
ENDCHAR
STARTCHAR endash
ENCODING 150
SWIDTH 275 0
DWIDTH 8 0
BBX 4 16 2 0
BITMAP
F0
F0
F0
F0
F0
F0
F0
F0
F0
F0
F0
F0
F0
F0
F0
F0
ENDCHAR
STARTCHAR emdash
ENCODING 151
SWIDTH 275 0
DWIDTH 8 0
BBX 4 16 2 0
BITMAP
F0
F0
F0
F0
F0
F0
F0
F0
F0
F0
F0
F0
F0
F0
F0
F0
ENDCHAR
STARTCHAR tilde
ENCODING 152
SWIDTH 275 0
DWIDTH 8 0
BBX 4 16 2 0
BITMAP
F0
F0
F0
F0
F0
F0
F0
F0
F0
F0
F0
F0
F0
F0
F0
F0
ENDCHAR
STARTCHAR trademark
ENCODING 153
SWIDTH 275 0
DWIDTH 8 0
BBX 4 16 2 0
BITMAP
F0
F0
F0
F0
F0
F0
F0
F0
F0
F0
F0
F0
F0
F0
F0
F0
ENDCHAR
STARTCHAR scaron
ENCODING 154
SWIDTH 275 0
DWIDTH 8 0
BBX 4 16 2 0
BITMAP
F0
F0
F0
F0
F0
F0
F0
F0
F0
F0
F0
F0
F0
F0
F0
F0
ENDCHAR
STARTCHAR guilsinglright
ENCODING 155
SWIDTH 275 0
DWIDTH 8 0
BBX 4 16 2 0
BITMAP
F0
F0
F0
F0
F0
F0
F0
F0
F0
F0
F0
F0
F0
F0
F0
F0
ENDCHAR
STARTCHAR oe
ENCODING 156
SWIDTH 275 0
DWIDTH 8 0
BBX 4 16 2 0
BITMAP
F0
F0
F0
F0
F0
F0
F0
F0
F0
F0
F0
F0
F0
F0
F0
F0
ENDCHAR
STARTCHAR NameMe.157
ENCODING 157
SWIDTH 275 0
DWIDTH 8 0
BBX 4 16 2 0
BITMAP
F0
F0
F0
F0
F0
F0
F0
F0
F0
F0
F0
F0
F0
F0
F0
F0
ENDCHAR
STARTCHAR zcaron
ENCODING 158
SWIDTH 275 0
DWIDTH 8 0
BBX 4 16 2 0
BITMAP
F0
F0
F0
F0
F0
F0
F0
F0
F0
F0
F0
F0
F0
F0
F0
F0
ENDCHAR
STARTCHAR Ydieresis
ENCODING 159
SWIDTH 275 0
DWIDTH 8 0
BBX 4 16 2 0
BITMAP
F0
F0
F0
F0
F0
F0
F0
F0
F0
F0
F0
F0
F0
F0
F0
F0
ENDCHAR
STARTCHAR uni00A0
ENCODING 160
SWIDTH 275 0
DWIDTH 6 0
BBX 1 1 5 -6
BITMAP
00
ENDCHAR
STARTCHAR exclamdown
ENCODING 161
SWIDTH 325 0
DWIDTH 6 0
BBX 2 17 2 0
BITMAP
C0
C0
00
00
C0
C0
C0
C0
C0
C0
C0
C0
C0
C0
C0
C0
C0
ENDCHAR
STARTCHAR cent
ENCODING 162
SWIDTH 550 0
DWIDTH 13 0
BBX 11 16 1 -2
BITMAP
0080
0180
0F00
3FC0
73E0
6260
C600
C400
C400
CC00
6860
78E0
3FC0
1F00
3000
2000
ENDCHAR
STARTCHAR sterling
ENCODING 163
SWIDTH 550 0
DWIDTH 13 0
BBX 11 17 1 0
BITMAP
0F80
1FC0
38E0
3060
3000
3000
3000
FE00
FE00
1800
1800
1800
1800
3000
7E60
FFE0
67C0
ENDCHAR
STARTCHAR currency
ENCODING 164
SWIDTH 550 0
DWIDTH 13 0
BBX 11 11 1 5
BITMAP
4040
EEE0
7FC0
3180
60C0
60C0
60C0
3180
7FC0
EEE0
4040
ENDCHAR
STARTCHAR yen
ENCODING 165
SWIDTH 550 0
DWIDTH 13 0
BBX 12 17 0 0
BITMAP
C030
C030
6060
30C0
30C0
1980
0F00
0F00
FFF0
0600
0600
FFF0
0600
0600
0600
0600
0600
ENDCHAR
STARTCHAR brokenbar
ENCODING 166
SWIDTH 250 0
DWIDTH 6 0
BBX 2 17 2 0
BITMAP
C0
C0
C0
C0
C0
C0
C0
00
00
00
C0
C0
C0
C0
C0
C0
C0
ENDCHAR
STARTCHAR section
ENCODING 167
SWIDTH 550 0
DWIDTH 13 0
BBX 11 22 1 -4
BITMAP
1F00
3F80
71C0
60C0
70C0
3800
7C00
EE00
C700
C380
E1C0
70E0
3860
1C60
0EE0
07C0
0380
61C0
60C0
7180
3F80
1F00
ENDCHAR
STARTCHAR dieresis
ENCODING 168
SWIDTH 325 0
DWIDTH 8 0
BBX 6 2 1 15
BITMAP
CC
CC
ENDCHAR
STARTCHAR copyright
ENCODING 169
SWIDTH 725 0
DWIDTH 20 0
BBX 16 17 2 0
BITMAP
07E0
1C38
300C
63C6
4662
CC33
8C31
8C01
8C01
8C01
8C31
CC33
4662
63C6
300C
1C38
07E0
ENDCHAR
STARTCHAR ordfeminine
ENCODING 170
SWIDTH 375 0
DWIDTH 8 0
BBX 7 11 1 6
BITMAP
78
CC
CC
3C
6C
CC
CC
76
00
FE
FE
ENDCHAR
STARTCHAR guillemotleft
ENCODING 171
SWIDTH 525 0
DWIDTH 13 0
BBX 9 8 2 3
BITMAP
1080
3180
6300
C600
C600
6300
3180
1080
ENDCHAR
STARTCHAR logicalnot
ENCODING 172
SWIDTH 575 0
DWIDTH 14 0
BBX 12 5 1 6
BITMAP
FFF0
FFF0
0030
0030
0030
ENDCHAR
STARTCHAR uni00AD
ENCODING 173
SWIDTH 325 0
DWIDTH 8 0
BBX 8 2 0 8
BITMAP
FF
FF
ENDCHAR
STARTCHAR registered
ENCODING 174
SWIDTH 725 0
DWIDTH 20 0
BBX 16 17 2 0
BITMAP
07E0
1C38
300C
6FC6
4C62
CC33
8C31
8C61
8FC1
8C61
8C31
CC33
4C32
6C36
300C
1C38
07E0
ENDCHAR
STARTCHAR macron
ENCODING 175
SWIDTH 550 0
DWIDTH 13 0
BBX 13 2 0 18
BITMAP
FFF8
FFF8
ENDCHAR
STARTCHAR degree
ENCODING 176
SWIDTH 400 0
DWIDTH 8 0
BBX 6 6 1 11
BITMAP
30
78
CC
CC
78
30
ENDCHAR
STARTCHAR plusminus
ENCODING 177
SWIDTH 575 0
DWIDTH 14 0
BBX 12 16 1 0
BITMAP
0600
0600
0600
0600
0600
FFF0
FFF0
0600
0600
0600
0600
0600
0000
0000
FFF0
FFF0
ENDCHAR
STARTCHAR uni00B2
ENCODING 178
SWIDTH 325 0
DWIDTH 7 0
BBX 6 8 0 9
BITMAP
78
CC
0C
18
30
60
C0
FC
ENDCHAR
STARTCHAR uni00B3
ENCODING 179
SWIDTH 325 0
DWIDTH 7 0
BBX 6 8 0 9
BITMAP
78
CC
0C
38
0C
0C
CC
78
ENDCHAR
STARTCHAR acute
ENCODING 180
SWIDTH 325 0
DWIDTH 8 0
BBX 6 4 1 13
BITMAP
1C
38
60
80
ENDCHAR
STARTCHAR mu
ENCODING 181
SWIDTH 550 0
DWIDTH 13 0
BBX 10 18 2 -6
BITMAP
C180
C180
C180
C180
C180
C180
C180
C180
C180
E380
FFC0
DCC0
C000
C000
C000
C000
C000
C000
ENDCHAR
STARTCHAR paragraph
ENCODING 182
SWIDTH 525 0
DWIDTH 12 0
BBX 10 16 1 0
BITMAP
1FC0
7C80
7C80
FC80
FC80
7C80
7C80
1C80
0480
0480
0480
0480
0480
0480
0480
0480
ENDCHAR
STARTCHAR periodcentered
ENCODING 183
SWIDTH 275 0
DWIDTH 6 0
BBX 2 2 2 9
BITMAP
C0
C0
ENDCHAR
STARTCHAR cedilla
ENCODING 184
SWIDTH 325 0
DWIDTH 8 0
BBX 5 5 2 -2
BITMAP
40
70
18
18
F0
ENDCHAR
STARTCHAR uni00B9
ENCODING 185
SWIDTH 325 0
DWIDTH 7 0
BBX 4 8 1 9
BITMAP
30
F0
30
30
30
30
30
30
ENDCHAR
STARTCHAR ordmasculine
ENCODING 186
SWIDTH 375 0
DWIDTH 8 0
BBX 7 11 0 6
BITMAP
38
6C
C6
C6
C6
C6
6C
38
00
FE
FE
ENDCHAR
STARTCHAR guillemotright
ENCODING 187
SWIDTH 525 0
DWIDTH 13 0
BBX 9 8 2 3
BITMAP
8400
C600
6300
3180
3180
6300
C600
8400
ENDCHAR
STARTCHAR onequarter
ENCODING 188
SWIDTH 825 0
DWIDTH 18 0
BBX 15 17 1 0
BITMAP
300C
F00C
3018
3030
3030
3060
30C0
30C0
0180
0306
030E
061E
0C36
0C66
187E
3006
3006
ENDCHAR
STARTCHAR onehalf
ENCODING 189
SWIDTH 825 0
DWIDTH 18 0
BBX 16 17 1 0
BITMAP
300C
F00C
3018
3030
3030
3060
30C0
30C0
0180
031E
0333
0603
0C06
0C0C
1818
3030
303F
ENDCHAR
STARTCHAR threequarters
ENCODING 190
SWIDTH 825 0
DWIDTH 18 0
BBX 15 17 1 0
BITMAP
780C
CC0C
0C18
3830
0C30
0C60
CCC0
78C0
0180
0306
030E
061E
0C36
0C66
187E
3006
3006
ENDCHAR
STARTCHAR questiondown
ENCODING 191
SWIDTH 550 0
DWIDTH 12 0
BBX 9 17 1 0
BITMAP
0C00
0C00
0000
0000
0C00
0C00
0C00
0C00
1C00
3800
7000
E000
C000
C180
6380
7F00
1E00
ENDCHAR
STARTCHAR Agrave
ENCODING 192
SWIDTH 675 0
DWIDTH 15 0
BBX 15 22 0 0
BITMAP
0700
0380
00C0
0000
0000
0380
0380
07C0
06C0
06C0
0EE0
0C60
1C70
1830
1830
3838
3FF8
3FF8
701C
600C
E00E
E00E
ENDCHAR
STARTCHAR Aacute
ENCODING 193
SWIDTH 675 0
DWIDTH 15 0
BBX 15 22 0 0
BITMAP
01C0
0380
0600
0000
0000
0380
0380
07C0
06C0
06C0
0EE0
0C60
1C70
1830
1830
3838
3FF8
3FF8
701C
600C
E00E
E00E
ENDCHAR
STARTCHAR Acircumflex
ENCODING 194
SWIDTH 675 0
DWIDTH 15 0
BBX 15 22 0 0
BITMAP
0380
07C0
0C60
0000
0000
0380
0380
07C0
06C0
06C0
0EE0
0C60
1C70
1830
1830
3838
3FF8
3FF8
701C
600C
E00E
E00E
ENDCHAR
STARTCHAR Atilde
ENCODING 195
SWIDTH 675 0
DWIDTH 15 0
BBX 15 22 0 0
BITMAP
0718
0FF0
18E0
0000
0000
0380
0380
07C0
06C0
06C0
0EE0
0C60
1C70
1830
1830
3838
3FF8
3FF8
701C
600C
E00E
E00E
ENDCHAR
STARTCHAR Adieresis
ENCODING 196
SWIDTH 675 0
DWIDTH 15 0
BBX 15 22 0 0
BITMAP
0C60
0C60
0000
0000
0000
0380
0380
07C0
06C0
06C0
0EE0
0C60
1C70
1830
1830
3838
3FF8
3FF8
701C
600C
E00E
E00E
ENDCHAR
STARTCHAR Aring
ENCODING 197
SWIDTH 675 0
DWIDTH 15 0
BBX 15 22 0 0
BITMAP
0380
0440
0440
0440
0380
0380
0380
07C0
06C0
06C0
0EE0
0C60
1C70
1830
1830
3838
3FF8
3FF8
701C
600C
E00E
E00E
ENDCHAR
STARTCHAR AE
ENCODING 198
SWIDTH 1000 0
DWIDTH 24 0
BBX 23 17 0 0
BITMAP
003FFE
003FFE
006C00
00EC00
00CC00
018C00
038C00
030FF8
060FF8
0E0C00
0FFC00
1FFC00
380C00
300C00
600C00
E00FFE
C00FFE
ENDCHAR
STARTCHAR Ccedilla
ENCODING 199
SWIDTH 725 0
DWIDTH 17 0
BBX 15 22 1 -5
BITMAP
07E0
1FF8
3C3C
700C
6006
E006
C000
C000
C000
C000
C000
E006
6006
700C
3C3C
1FF8
07E0
0180
00C0
0060
0060
03C0
ENDCHAR
STARTCHAR Egrave
ENCODING 200
SWIDTH 675 0
DWIDTH 16 0
BBX 12 22 2 0
BITMAP
1800
0E00
0300
0000
0000
FFF0
FFF0
C000
C000
C000
C000
C000
FFE0
FFE0
C000
C000
C000
C000
C000
C000
FFF0
FFF0
ENDCHAR
STARTCHAR Eacute
ENCODING 201
SWIDTH 675 0
DWIDTH 16 0
BBX 12 22 2 0
BITMAP
0700
0E00
1800
0000
0000
FFF0
FFF0
C000
C000
C000
C000
C000
FFE0
FFE0
C000
C000
C000
C000
C000
C000
FFF0
FFF0
ENDCHAR
STARTCHAR Ecircumflex
ENCODING 202
SWIDTH 675 0
DWIDTH 16 0
BBX 12 22 2 0
BITMAP
0700
0D80
18C0
0000
0000
FFF0
FFF0
C000
C000
C000
C000
C000
FFE0
FFE0
C000
C000
C000
C000
C000
C000
FFF0
FFF0
ENDCHAR
STARTCHAR Edieresis
ENCODING 203
SWIDTH 675 0
DWIDTH 16 0
BBX 12 21 2 0
BITMAP
30C0
30C0
0000
0000
FFF0
FFF0
C000
C000
C000
C000
C000
FFE0
FFE0
C000
C000
C000
C000
C000
C000
FFF0
FFF0
ENDCHAR
STARTCHAR Igrave
ENCODING 204
SWIDTH 250 0
DWIDTH 6 0
BBX 4 22 1 0
BITMAP
C0
60
70
00
00
60
60
60
60
60
60
60
60
60
60
60
60
60
60
60
60
60
ENDCHAR
STARTCHAR Iacute
ENCODING 205
SWIDTH 250 0
DWIDTH 6 0
BBX 5 22 1 0
BITMAP
38
70
C0
00
00
60
60
60
60
60
60
60
60
60
60
60
60
60
60
60
60
60
ENDCHAR
STARTCHAR Icircumflex
ENCODING 206
SWIDTH 250 0
DWIDTH 6 0
BBX 6 22 0 0
BITMAP
30
78
CC
00
00
30
30
30
30
30
30
30
30
30
30
30
30
30
30
30
30
30
ENDCHAR
STARTCHAR Idieresis
ENCODING 207
SWIDTH 250 0
DWIDTH 6 0
BBX 6 22 0 0
BITMAP
CC
CC
00
00
00
30
30
30
30
30
30
30
30
30
30
30
30
30
30
30
30
30
ENDCHAR
STARTCHAR Eth
ENCODING 208
SWIDTH 725 0
DWIDTH 17 0
BBX 15 17 0 0
BITMAP
3FC0
3FF0
3078
301C
300C
300E
3006
FC06
FC06
3006
3006
300E
300C
301C
3078
3FF0
3FC0
ENDCHAR
STARTCHAR Ntilde
ENCODING 209
SWIDTH 725 0
DWIDTH 18 0
BBX 14 22 2 0
BITMAP
0E30
1FE0
31C0
0000
0000
C00C
E00C
F00C
F80C
D80C
DC0C
CE0C
C70C
C30C
C38C
C1CC
C0EC
C06C
C07C
C03C
C01C
C00C
ENDCHAR
STARTCHAR Ograve
ENCODING 210
SWIDTH 775 0
DWIDTH 19 0
BBX 17 22 1 0
BITMAP
038000
01C000
006000
000000
000000
07F000
1FFC00
3C1E00
300700
600300
E00380
C00180
C00180
C00180
C00180
C00180
E00380
600300
700700
3C1E00
1FFC00
07F000
ENDCHAR
STARTCHAR Oacute
ENCODING 211
SWIDTH 775 0
DWIDTH 19 0
BBX 17 22 1 0
BITMAP
007000
00E000
018000
000000
000000
07F000
1FFC00
3C1E00
300700
600300
E00380
C00180
C00180
C00180
C00180
C00180
E00380
600300
700700
3C1E00
1FFC00
07F000
ENDCHAR
STARTCHAR Ocircumflex
ENCODING 212
SWIDTH 775 0
DWIDTH 19 0
BBX 17 22 1 0
BITMAP
01C000
036000
063000
000000
000000
07F000
1FFC00
3C1E00
300700
600300
E00380
C00180
C00180
C00180
C00180
C00180
E00380
600300
700700
3C1E00
1FFC00
07F000
ENDCHAR
STARTCHAR Otilde
ENCODING 213
SWIDTH 775 0
DWIDTH 19 0
BBX 17 22 1 0
BITMAP
038C00
07F800
0C7000
000000
000000
07F000
1FFC00
3C1E00
300700
600300
E00380
C00180
C00180
C00180
C00180
C00180
E00380
600300
700700
3C1E00
1FFC00
07F000
ENDCHAR
STARTCHAR Odieresis
ENCODING 214
SWIDTH 775 0
DWIDTH 19 0
BBX 17 22 1 0
BITMAP
0C1800
0C1800
000000
000000
000000
07F000
1FFC00
3C1E00
300700
600300
E00380
C00180
C00180
C00180
C00180
C00180
E00380
600300
700700
3C1E00
1FFC00
07F000
ENDCHAR
STARTCHAR multiply
ENCODING 215
SWIDTH 575 0
DWIDTH 14 0
BBX 10 11 2 2
BITMAP
8040
C0C0
6180
3300
1E00
0C00
1E00
3300
6180
C0C0
8040
ENDCHAR
STARTCHAR Oslash
ENCODING 216
SWIDTH 775 0
DWIDTH 19 0
BBX 17 17 1 0
BITMAP
07F080
1FFD80
3C1F00
300700
600F00
E01B80
C03180
C06180
C0C180
C18180
C30180
E60380
6C0300
780700
3C1E00
7FFC00
C7F000
ENDCHAR
STARTCHAR Ugrave
ENCODING 217
SWIDTH 725 0
DWIDTH 17 0
BBX 13 21 2 0
BITMAP
0E00
0700
0180
0000
C018
C018
C018
C018
C018
C018
C018
C018
C018
C018
C018
C018
C018
6030
7070
3FE0
0F80
ENDCHAR
STARTCHAR Uacute
ENCODING 218
SWIDTH 725 0
DWIDTH 17 0
BBX 13 22 2 0
BITMAP
01C0
0380
0600
0000
0000
C018
C018
C018
C018
C018
C018
C018
C018
C018
C018
C018
C018
C018
6030
7070
3FE0
0F80
ENDCHAR
STARTCHAR Ucircumflex
ENCODING 219
SWIDTH 725 0
DWIDTH 17 0
BBX 13 22 2 0
BITMAP
0700
0D80
18C0
0000
0000
C018
C018
C018
C018
C018
C018
C018
C018
C018
C018
C018
C018
C018
6030
7070
3FE0
0F80
ENDCHAR
STARTCHAR Udieresis
ENCODING 220
SWIDTH 725 0
DWIDTH 17 0
BBX 13 22 2 0
BITMAP
18C0
18C0
0000
0000
0000
C018
C018
C018
C018
C018
C018
C018
C018
C018
C018
C018
C018
C018
6030
7070
3FE0
0F80
ENDCHAR
STARTCHAR Yacute
ENCODING 221
SWIDTH 650 0
DWIDTH 16 0
BBX 16 22 0 0
BITMAP
00E0
01C0
0300
0000
0000
C003
E007
700E
381C
1C38
0E70
07E0
03C0
0180
0180
0180
0180
0180
0180
0180
0180
0180
ENDCHAR
STARTCHAR Thorn
ENCODING 222
SWIDTH 675 0
DWIDTH 16 0
BBX 14 20 1 -3
BITMAP
C000
C000
C000
FFE0
FFF8
C01C
C00C
C00C
C00C
C00C
C00C
C00C
C00C
C00C
C018
FFF8
FFE0
C000
C000
C000
ENDCHAR
STARTCHAR germandbls
ENCODING 223
SWIDTH 575 0
DWIDTH 15 0
BBX 12 17 1 0
BITMAP
1F80
7FE0
6060
C030
C030
C030
C070
CFE0
CFE0
C060
C030
C030
C030
C030
C060
CFE0
CF80
ENDCHAR
STARTCHAR agrave
ENCODING 224
SWIDTH 550 0
DWIDTH 13 0
BBX 12 17 1 0
BITMAP
3800
1C00
0600
0000
0000
1E00
7F80
6180
00C0
01C0
1FC0
7EC0
E0C0
C0C0
E1C0
7FF0
3E70
ENDCHAR
STARTCHAR aacute
ENCODING 225
SWIDTH 550 0
DWIDTH 13 0
BBX 12 17 1 0
BITMAP
0700
0E00
1800
0000
0000
1E00
7F80
6180
00C0
01C0
1FC0
7EC0
E0C0
C0C0
E1C0
7FF0
3E70
ENDCHAR
STARTCHAR acircumflex
ENCODING 226
SWIDTH 550 0
DWIDTH 13 0
BBX 12 17 1 0
BITMAP
1C00
3600
6300
0000
0000
1E00
7F80
6180
00C0
01C0
1FC0
7EC0
E0C0
C0C0
E1C0
7FF0
3E70
ENDCHAR
STARTCHAR atilde
ENCODING 227
SWIDTH 550 0
DWIDTH 13 0
BBX 12 17 1 0
BITMAP
38C0
7F80
C700
0000
0000
1E00
7F80
6180
00C0
01C0
1FC0
7EC0
E0C0
C0C0
E1C0
7FF0
3E70
ENDCHAR
STARTCHAR adieresis
ENCODING 228
SWIDTH 550 0
DWIDTH 13 0
BBX 12 17 1 0
BITMAP
6300
6300
0000
0000
0000
1E00
7F80
6180
00C0
01C0
1FC0
7EC0
E0C0
C0C0
E1C0
7FF0
3E70
ENDCHAR
STARTCHAR aring
ENCODING 229
SWIDTH 550 0
DWIDTH 13 0
BBX 12 17 1 0
BITMAP
1C00
3600
6300
6300
3600
1E00
7F80
6180
00C0
01C0
1FC0
7EC0
E0C0
C0C0
E1C0
7FF0
3E70
ENDCHAR
STARTCHAR ae
ENCODING 230
SWIDTH 900 0
DWIDTH 21 0
BBX 19 12 1 0
BITMAP
1E1E00
7FFF80
61E1C0
00C0E0
01C060
1FFFE0
7EFFE0
E0C000
C0C000
E1E0E0
7FFFC0
3E1F00
ENDCHAR
STARTCHAR ccedilla
ENCODING 231
SWIDTH 525 0
DWIDTH 12 0
BBX 11 17 0 -5
BITMAP
0F00
3FC0
70E0
6060
C000
C000
C000
C000
6060
70E0
3FC0
0F00
0600
0700
0180
0180
0F00
ENDCHAR
STARTCHAR egrave
ENCODING 232
SWIDTH 550 0
DWIDTH 14 0
BBX 12 17 1 0
BITMAP
1C00
0E00
0300
0000
0000
0F00
3FC0
70E0
6060
C030
FFF0
FFF0
C000
6000
7070
3FE0
0F80
ENDCHAR
STARTCHAR eacute
ENCODING 233
SWIDTH 550 0
DWIDTH 14 0
BBX 12 17 1 0
BITMAP
0700
0E00
1800
0000
0000
0F00
3FC0
70E0
6060
C030
FFF0
FFF0
C000
6000
7070
3FE0
0F80
ENDCHAR
STARTCHAR ecircumflex
ENCODING 234
SWIDTH 550 0
DWIDTH 14 0
BBX 12 17 1 0
BITMAP
0E00
1B00
3180
0000
0000
0F00
3FC0
70E0
6060
C030
FFF0
FFF0
C000
6000
7070
3FE0
0F80
ENDCHAR
STARTCHAR edieresis
ENCODING 235
SWIDTH 550 0
DWIDTH 14 0
BBX 12 17 1 0
BITMAP
1980
1980
0000
0000
0000
0F00
3FC0
70E0
6060
C030
FFF0
FFF0
C000
6000
7070
3FE0
0F80
ENDCHAR
STARTCHAR igrave
ENCODING 236
SWIDTH 225 0
DWIDTH 6 0
BBX 5 17 0 0
BITMAP
E0
70
18
00
00
30
30
30
30
30
30
30
30
30
30
30
30
ENDCHAR
STARTCHAR iacute
ENCODING 237
SWIDTH 225 0
DWIDTH 6 0
BBX 5 17 1 0
BITMAP
38
70
C0
00
00
60
60
60
60
60
60
60
60
60
60
60
60
ENDCHAR
STARTCHAR icircumflex
ENCODING 238
SWIDTH 225 0
DWIDTH 6 0
BBX 6 17 0 0
BITMAP
30
78
CC
00
00
30
30
30
30
30
30
30
30
30
30
30
30
ENDCHAR
STARTCHAR idieresis
ENCODING 239
SWIDTH 225 0
DWIDTH 6 0
BBX 6 17 0 0
BITMAP
CC
CC
00
00
00
30
30
30
30
30
30
30
30
30
30
30
30
ENDCHAR
STARTCHAR eth
ENCODING 240
SWIDTH 550 0
DWIDTH 14 0
BBX 12 17 1 0
BITMAP
7300
3E00
0F00
1B80
01C0
1EE0
7FE0
71E0
E070
C030
C030
C030
C030
E070
70E0
7FE0
1F80
ENDCHAR
STARTCHAR ntilde
ENCODING 241
SWIDTH 550 0
DWIDTH 13 0
BBX 9 16 2 0
BITMAP
3880
7F80
4700
0000
0000
CC00
FF00
E300
C180
C180
C180
C180
C180
C180
C180
C180
ENDCHAR
STARTCHAR ograve
ENCODING 242
SWIDTH 575 0
DWIDTH 14 0
BBX 12 17 1 0
BITMAP
1C00
0E00
0300
0000
0000
1F80
7FE0
70E0
E070
C030
C030
C030
C030
E070
70E0
7FE0
1F80
ENDCHAR
STARTCHAR oacute
ENCODING 243
SWIDTH 575 0
DWIDTH 14 0
BBX 12 17 1 0
BITMAP
0380
0700
0C00
0000
0000
1F80
7FE0
70E0
E070
C030
C030
C030
C030
E070
70E0
7FE0
1F80
ENDCHAR
STARTCHAR ocircumflex
ENCODING 244
SWIDTH 575 0
DWIDTH 14 0
BBX 12 17 1 0
BITMAP
0E00
1B00
3180
0000
0000
1F80
7FE0
70E0
E070
C030
C030
C030
C030
E070
70E0
7FE0
1F80
ENDCHAR
STARTCHAR otilde
ENCODING 245
SWIDTH 575 0
DWIDTH 14 0
BBX 12 17 1 0
BITMAP
1C60
3FC0
6380
0000
0000
1F80
7FE0
70E0
E070
C030
C030
C030
C030
E070
70E0
7FE0
1F80
ENDCHAR
STARTCHAR odieresis
ENCODING 246
SWIDTH 575 0
DWIDTH 14 0
BBX 12 17 1 0
BITMAP
30C0
30C0
0000
0000
0000
1F80
7FE0
70E0
E070
C030
C030
C030
C030
E070
70E0
7FE0
1F80
ENDCHAR
STARTCHAR divide
ENCODING 247
SWIDTH 575 0
DWIDTH 14 0
BBX 10 10 2 3
BITMAP
0C00
0C00
0000
0000
FFC0
FFC0
0000
0000
0C00
0C00
ENDCHAR
STARTCHAR oslash
ENCODING 248
SWIDTH 575 0
DWIDTH 14 0
BBX 12 12 1 0
BITMAP
1FB0
7FE0
70E0
E170
C230
C230
C430
C830
E870
70E0
7FE0
DF80
ENDCHAR
STARTCHAR ugrave
ENCODING 249
SWIDTH 550 0
DWIDTH 13 0
BBX 9 17 2 0
BITMAP
3800
1C00
0600
0000
0000
C180
C180
C180
C180
C180
C180
C180
C180
C180
6380
7F80
1D80
ENDCHAR
STARTCHAR uacute
ENCODING 250
SWIDTH 550 0
DWIDTH 13 0
BBX 9 17 2 0
BITMAP
0E00
1C00
3000
0000
0000
C180
C180
C180
C180
C180
C180
C180
C180
C180
6380
7F80
1D80
ENDCHAR
STARTCHAR ucircumflex
ENCODING 251
SWIDTH 550 0
DWIDTH 13 0
BBX 9 17 2 0
BITMAP
1C00
3600
6300
0000
0000
C180
C180
C180
C180
C180
C180
C180
C180
C180
6380
7F80
1D80
ENDCHAR
STARTCHAR udieresis
ENCODING 252
SWIDTH 550 0
DWIDTH 13 0
BBX 9 17 2 0
BITMAP
6300
6300
0000
0000
0000
C180
C180
C180
C180
C180
C180
C180
C180
C180
6380
7F80
1D80
ENDCHAR
STARTCHAR yacute
ENCODING 253
SWIDTH 500 0
DWIDTH 11 0
BBX 11 22 0 -5
BITMAP
0700
0E00
1800
0000
0000
C060
C060
E0E0
60C0
71C0
3180
3180
3B80
1B00
1F00
0E00
0E00
0C00
1C00
1800
F800
F000
ENDCHAR
STARTCHAR thorn
ENCODING 254
SWIDTH 550 0
DWIDTH 14 0
BBX 11 23 2 -6
BITMAP
C000
C000
C000
C000
C000
DF00
FFC0
E1C0
C0E0
C060
C060
C060
C060
C0E0
E1C0
FFC0
DF00
C000
C000
C000
C000
C000
C000
ENDCHAR
STARTCHAR ydieresis
ENCODING 255
SWIDTH 500 0
DWIDTH 11 0
BBX 11 22 0 -5
BITMAP
3180
3180
0000
0000
0000
C060
C060
E0E0
60C0
71C0
3180
3180
3B80
1B00
1F00
0E00
0E00
0C00
1C00
1800
F800
F000
ENDCHAR
ENDFONT
